# MagicaVoxel @ Ephtracy

# group
o 

# material
mtllib Coin2.mtl
usemtl palette

# normals
vn -1 0 0
vn 1 0 0
vn 0 0 1
vn 0 0 -1
vn 0 -1 0
vn 0 1 0

# texcoords
vt 0.0175781 0.5
vt 0.0410156 0.5
vt 0.955078 0.5
vt 0.958984 0.5

# verts
v -1.1 0 0.3
v -1.1 0 -0.4
v -1.1 0.2 0.3
v -1.1 0.2 -0.4
v -0.9 0 0.7
v -0.9 0 0.3
v -0.9 0 -0.4
v -0.9 0 -0.8
v -0.9 0.2 0.7
v -0.9 0.2 0.3
v -0.9 0.2 -0.4
v -0.9 0.2 -0.8
v -0.7 0 0.9
v -0.7 0 0.7
v -0.7 0 -0.8
v -0.7 0 -1
v -0.7 0.2 0.9
v -0.7 0.2 0.7
v -0.7 0.2 -0.8
v -0.7 0.2 -1
v -0.5 0 1
v -0.5 0 0.9
v -0.5 0 -1
v -0.5 0 -1.1
v -0.5 0.2 1
v -0.5 0.2 0.9
v -0.5 0.2 -1
v -0.5 0.2 -1.1
v 0.4 0 -1
v 0.4 0 -1.1
v 0.4 0.2 -1
v 0.4 0.2 -1.1
v 0.5 0 1
v 0.5 0 0.9
v 0.5 0.2 1
v 0.5 0.2 0.9
v 0.6 0 -0.8
v 0.6 0 -1
v 0.6 0.2 -0.8
v 0.6 0.2 -1
v 0.7 0 0.9
v 0.7 0 0.7
v 0.7 0.2 0.9
v 0.7 0.2 0.7
v 0.8 0 -0.4
v 0.8 0 -0.8
v 0.8 0.2 -0.4
v 0.8 0.2 -0.8
v 0.9 0 0.7
v 0.9 0 0.3
v 0.9 0.2 0.7
v 0.9 0.2 0.3
v 1 0 0.3
v 1 0 -0.4
v 1 0.2 0.3
v 1 0.2 -0.4
v -0.5 0 1
v -0.5 0.2 1
v 0.5 0 1
v 0.5 0.2 1
v -0.7 0 0.9
v -0.7 0.2 0.9
v -0.5 0 0.9
v -0.5 0.2 0.9
v 0.5 0 0.9
v 0.5 0.2 0.9
v 0.7 0 0.9
v 0.7 0.2 0.9
v -0.9 0 0.7
v -0.9 0.2 0.7
v -0.7 0 0.7
v -0.7 0.2 0.7
v 0.7 0 0.7
v 0.7 0.2 0.7
v 0.9 0 0.7
v 0.9 0.2 0.7
v -1.1 0 0.3
v -1.1 0.2 0.3
v -0.9 0 0.3
v -0.9 0.2 0.3
v 0.9 0 0.3
v 0.9 0.2 0.3
v 1 0 0.3
v 1 0.2 0.3
v -1.1 0 -0.4
v -1.1 0.2 -0.4
v -0.9 0 -0.4
v -0.9 0.2 -0.4
v 0.8 0 -0.4
v 0.8 0.2 -0.4
v 1 0 -0.4
v 1 0.2 -0.4
v -0.9 0 -0.8
v -0.9 0.2 -0.8
v -0.7 0 -0.8
v -0.7 0.2 -0.8
v 0.6 0 -0.8
v 0.6 0.2 -0.8
v 0.8 0 -0.8
v 0.8 0.2 -0.8
v -0.7 0 -1
v -0.7 0.2 -1
v -0.5 0 -1
v -0.5 0.2 -1
v 0.4 0 -1
v 0.4 0.2 -1
v 0.6 0 -1
v 0.6 0.2 -1
v -0.5 0 -1.1
v -0.5 0.2 -1.1
v 0.4 0 -1.1
v 0.4 0.2 -1.1
v -0.5 0 1
v 0.5 0 1
v -0.7 0 0.9
v -0.5 0 0.9
v 0.5 0 0.9
v 0.7 0 0.9
v -0.5 0 0.8
v 0.5 0 0.8
v -0.9 0 0.7
v -0.7 0 0.7
v -0.5 0 0.7
v 0.5 0 0.7
v 0.7 0 0.7
v 0.9 0 0.7
v -1.1 0 0.3
v -0.9 0 0.3
v -0.7 0 0.3
v 0.7 0 0.3
v 0.9 0 0.3
v 1 0 0.3
v 0.8 0 -0.2
v 0.9 0 -0.2
v -1.1 0 -0.4
v -0.9 0 -0.4
v -0.7 0 -0.4
v 0.6 0 -0.4
v 0.8 0 -0.4
v 1 0 -0.4
v -0.9 0 -0.8
v -0.7 0 -0.8
v -0.5 0 -0.8
v 0.4 0 -0.8
v 0.6 0 -0.8
v 0.8 0 -0.8
v -0.5 0 -0.9
v 0.4 0 -0.9
v -0.7 0 -1
v -0.5 0 -1
v 0.4 0 -1
v 0.6 0 -1
v -0.5 0 -1.1
v 0.4 0 -1.1
v -0.5 0.2 1
v 0.5 0.2 1
v -0.7 0.2 0.9
v -0.5 0.2 0.9
v 0.5 0.2 0.9
v 0.7 0.2 0.9
v -0.5 0.2 0.8
v 0.5 0.2 0.8
v -0.9 0.2 0.7
v -0.7 0.2 0.7
v -0.5 0.2 0.7
v 0.5 0.2 0.7
v 0.7 0.2 0.7
v 0.9 0.2 0.7
v -1.1 0.2 0.3
v -0.9 0.2 0.3
v -0.7 0.2 0.3
v -0.6 0.2 0.3
v 0.1 0.2 0.3
v 0.4 0.2 0.3
v 0.6 0.2 0.3
v 0.7 0.2 0.3
v 0.9 0.2 0.3
v 1 0.2 0.3
v -0.4 0.2 0.1
v -0.1 0.2 0.1
v -0.8 0.2 0
v -0.6 0.2 0
v -0.4 0.2 0
v -0.1 0.2 0
v 0.1 0.2 0
v 0.4 0.2 0
v 0.6 0.2 0
v 0.8 0.2 0
v -0.8 0.2 -0.1
v -0.6 0.2 -0.1
v -0.4 0.2 -0.1
v -0.1 0.2 -0.1
v 0.1 0.2 -0.1
v 0.4 0.2 -0.1
v 0.6 0.2 -0.1
v 0.8 0.2 -0.1
v -0.8 0.2 -0.2
v -0.7 0.2 -0.2
v 0.1 0.2 -0.2
v 0.4 0.2 -0.2
v 0.8 0.2 -0.2
v 0.9 0.2 -0.2
v -1.1 0.2 -0.4
v -0.9 0.2 -0.4
v -0.8 0.2 -0.4
v -0.7 0.2 -0.4
v -0.6 0.2 -0.4
v -0.5 0.2 -0.4
v -0.4 0.2 -0.4
v -0.1 0.2 -0.4
v 0.6 0.2 -0.4
v 0.8 0.2 -0.4
v 1 0.2 -0.4
v -0.5 0.2 -0.6
v -0.4 0.2 -0.6
v -0.6 0.2 -0.7
v -0.4 0.2 -0.7
v -0.9 0.2 -0.8
v -0.7 0.2 -0.8
v -0.5 0.2 -0.8
v -0.4 0.2 -0.8
v -0.2 0.2 -0.8
v 0.4 0.2 -0.8
v 0.6 0.2 -0.8
v 0.8 0.2 -0.8
v -0.5 0.2 -0.9
v -0.4 0.2 -0.9
v -0.2 0.2 -0.9
v 0.4 0.2 -0.9
v -0.7 0.2 -1
v -0.5 0.2 -1
v 0.4 0.2 -1
v 0.6 0.2 -1
v -0.5 0.2 -1.1
v 0.4 0.2 -1.1

# faces
f 3/3/1 2/3/1 1/3/1
f 4/3/1 2/3/1 3/3/1
f 9/3/1 6/3/1 5/3/1
f 10/3/1 6/3/1 9/3/1
f 11/3/1 8/3/1 7/3/1
f 12/3/1 8/3/1 11/3/1
f 17/3/1 14/3/1 13/3/1
f 18/3/1 14/3/1 17/3/1
f 19/3/1 16/3/1 15/3/1
f 20/3/1 16/3/1 19/3/1
f 25/3/1 22/3/1 21/3/1
f 26/3/1 22/3/1 25/3/1
f 27/3/1 24/3/1 23/3/1
f 28/3/1 24/3/1 27/3/1
f 29/3/2 30/3/2 31/3/2
f 31/3/2 30/3/2 32/3/2
f 33/3/2 34/3/2 35/3/2
f 35/3/2 34/3/2 36/3/2
f 37/3/2 38/3/2 39/3/2
f 39/3/2 38/3/2 40/3/2
f 41/3/2 42/3/2 43/3/2
f 43/3/2 42/3/2 44/3/2
f 45/3/2 46/3/2 47/3/2
f 47/3/2 46/3/2 48/3/2
f 49/3/2 50/3/2 51/3/2
f 51/3/2 50/3/2 52/3/2
f 53/3/2 54/3/2 55/3/2
f 55/3/2 54/3/2 56/3/2
f 59/3/3 58/3/3 57/3/3
f 60/3/3 58/3/3 59/3/3
f 63/3/3 62/3/3 61/3/3
f 64/3/3 62/3/3 63/3/3
f 67/3/3 66/3/3 65/3/3
f 68/3/3 66/3/3 67/3/3
f 71/3/3 70/3/3 69/3/3
f 72/3/3 70/3/3 71/3/3
f 75/3/3 74/3/3 73/3/3
f 76/3/3 74/3/3 75/3/3
f 79/3/3 78/3/3 77/3/3
f 80/3/3 78/3/3 79/3/3
f 83/3/3 82/3/3 81/3/3
f 84/3/3 82/3/3 83/3/3
f 85/3/4 86/3/4 87/3/4
f 87/3/4 86/3/4 88/3/4
f 89/3/4 90/3/4 91/3/4
f 91/3/4 90/3/4 92/3/4
f 93/3/4 94/3/4 95/3/4
f 95/3/4 94/3/4 96/3/4
f 97/3/4 98/3/4 99/3/4
f 99/3/4 98/3/4 100/3/4
f 101/3/4 102/3/4 103/3/4
f 103/3/4 102/3/4 104/3/4
f 105/3/4 106/3/4 107/3/4
f 107/3/4 106/3/4 108/3/4
f 109/3/4 110/3/4 111/3/4
f 111/3/4 110/3/4 112/3/4
f 116/3/5 114/3/5 113/3/5
f 117/3/5 114/3/5 116/3/5
f 119/3/5 116/3/5 115/3/5
f 119/3/5 118/3/5 117/3/5
f 119/3/5 117/3/5 116/3/5
f 120/3/5 118/3/5 119/3/5
f 122/3/5 119/3/5 115/3/5
f 123/1/5 120/1/5 119/1/5
f 123/3/5 119/3/5 122/3/5
f 124/3/5 118/3/5 120/3/5
f 124/1/5 120/1/5 123/1/5
f 125/3/5 118/3/5 124/3/5
f 128/3/5 122/3/5 121/3/5
f 129/1/5 123/1/5 122/1/5
f 129/1/5 124/1/5 123/1/5
f 129/3/5 122/3/5 128/3/5
f 129/1/5 125/1/5 124/1/5
f 130/3/5 126/3/5 125/3/5
f 130/1/5 125/1/5 129/1/5
f 131/3/5 126/3/5 130/3/5
f 133/1/5 129/1/5 128/1/5
f 133/1/5 130/1/5 129/1/5
f 133/1/5 131/1/5 130/1/5
f 134/3/5 132/3/5 131/3/5
f 134/1/5 131/1/5 133/1/5
f 135/3/5 128/3/5 127/3/5
f 136/1/5 133/1/5 128/1/5
f 136/3/5 128/3/5 135/3/5
f 137/1/5 133/1/5 136/1/5
f 138/1/5 133/1/5 137/1/5
f 139/3/5 134/3/5 133/3/5
f 139/1/5 133/1/5 138/1/5
f 140/3/5 132/3/5 134/3/5
f 140/3/5 134/3/5 139/3/5
f 141/3/5 137/3/5 136/3/5
f 142/1/5 138/1/5 137/1/5
f 142/3/5 137/3/5 141/3/5
f 143/1/5 138/1/5 142/1/5
f 144/1/5 138/1/5 143/1/5
f 145/3/5 139/3/5 138/3/5
f 145/1/5 138/1/5 144/1/5
f 146/3/5 139/3/5 145/3/5
f 147/1/5 144/1/5 143/1/5
f 147/3/5 143/3/5 142/3/5
f 148/3/5 145/3/5 144/3/5
f 148/1/5 144/1/5 147/1/5
f 149/3/5 147/3/5 142/3/5
f 149/3/5 148/3/5 147/3/5
f 150/3/5 148/3/5 149/3/5
f 151/3/5 145/3/5 148/3/5
f 151/3/5 148/3/5 150/3/5
f 152/3/5 145/3/5 151/3/5
f 153/3/5 151/3/5 150/3/5
f 154/3/5 151/3/5 153/3/5
f 155/3/6 156/3/6 158/3/6
f 158/3/6 156/3/6 159/3/6
f 157/3/6 158/3/6 161/3/6
f 159/3/6 160/3/6 161/3/6
f 158/3/6 159/3/6 161/3/6
f 161/3/6 160/3/6 162/3/6
f 157/3/6 161/3/6 164/3/6
f 161/1/6 162/1/6 165/1/6
f 164/3/6 161/3/6 165/3/6
f 162/3/6 160/3/6 166/3/6
f 165/1/6 162/1/6 166/1/6
f 166/3/6 160/3/6 167/3/6
f 163/3/6 164/3/6 170/3/6
f 164/1/6 165/1/6 171/1/6
f 165/1/6 166/1/6 171/1/6
f 170/3/6 164/3/6 171/3/6
f 166/1/6 167/1/6 171/1/6
f 171/1/6 167/1/6 172/1/6
f 172/1/6 167/1/6 173/1/6
f 173/1/6 167/1/6 174/1/6
f 174/1/6 167/1/6 175/1/6
f 167/3/6 168/3/6 176/3/6
f 175/1/6 167/1/6 176/1/6
f 176/3/6 168/3/6 177/3/6
f 172/2/6 173/2/6 179/2/6
f 179/2/6 173/2/6 180/2/6
f 170/1/6 171/1/6 181/1/6
f 171/1/6 172/1/6 181/1/6
f 172/2/6 179/2/6 182/2/6
f 181/1/6 172/1/6 182/1/6
f 179/1/6 180/1/6 183/1/6
f 182/2/6 179/2/6 183/2/6
f 180/2/6 173/2/6 184/2/6
f 183/1/6 180/1/6 184/1/6
f 173/1/6 174/1/6 185/1/6
f 184/2/6 173/2/6 185/2/6
f 174/2/6 175/2/6 186/2/6
f 185/1/6 174/1/6 186/1/6
f 175/1/6 176/1/6 187/1/6
f 186/2/6 175/2/6 187/2/6
f 176/1/6 177/1/6 187/1/6
f 187/1/6 177/1/6 188/1/6
f 184/2/6 185/2/6 189/2/6
f 182/2/6 183/2/6 189/2/6
f 187/2/6 188/2/6 189/2/6
f 186/2/6 187/2/6 189/2/6
f 170/1/6 181/1/6 189/1/6
f 185/2/6 186/2/6 189/2/6
f 183/2/6 184/2/6 189/2/6
f 181/2/6 182/2/6 189/2/6
f 189/2/6 188/2/6 190/2/6
f 190/2/6 188/2/6 191/2/6
f 191/2/6 188/2/6 192/2/6
f 192/2/6 188/2/6 193/2/6
f 193/2/6 188/2/6 194/2/6
f 194/2/6 188/2/6 195/2/6
f 188/1/6 177/1/6 196/1/6
f 195/2/6 188/2/6 196/2/6
f 170/1/6 189/1/6 197/1/6
f 189/1/6 190/1/6 197/1/6
f 197/1/6 190/1/6 198/1/6
f 192/2/6 193/2/6 199/2/6
f 193/1/6 194/1/6 199/1/6
f 194/2/6 195/2/6 200/2/6
f 199/1/6 194/1/6 200/1/6
f 196/1/6 177/1/6 201/1/6
f 195/1/6 196/1/6 201/1/6
f 177/3/6 178/3/6 202/3/6
f 201/1/6 177/1/6 202/1/6
f 169/3/6 170/3/6 203/3/6
f 170/1/6 197/1/6 204/1/6
f 203/3/6 170/3/6 204/3/6
f 197/4/6 198/4/6 205/4/6
f 204/1/6 197/1/6 205/1/6
f 198/1/6 190/1/6 206/1/6
f 205/4/6 198/4/6 206/4/6
f 190/2/6 191/2/6 207/2/6
f 206/1/6 190/1/6 207/1/6
f 207/2/6 191/2/6 208/2/6
f 191/1/6 192/1/6 209/1/6
f 208/2/6 191/2/6 209/2/6
f 192/2/6 199/2/6 210/2/6
f 209/1/6 192/1/6 210/1/6
f 199/2/6 200/2/6 210/2/6
f 195/1/6 201/1/6 211/1/6
f 210/2/6 200/2/6 211/2/6
f 200/2/6 195/2/6 211/2/6
f 201/3/6 202/3/6 212/3/6
f 211/1/6 201/1/6 212/1/6
f 202/3/6 178/3/6 213/3/6
f 212/3/6 202/3/6 213/3/6
f 208/1/6 209/1/6 214/1/6
f 209/1/6 210/1/6 214/1/6
f 210/1/6 211/1/6 214/1/6
f 207/4/6 208/4/6 214/4/6
f 214/1/6 211/1/6 215/1/6
f 206/1/6 207/1/6 216/1/6
f 207/4/6 214/4/6 216/4/6
f 214/4/6 215/4/6 216/4/6
f 215/1/6 211/1/6 217/1/6
f 216/4/6 215/4/6 217/4/6
f 204/3/6 205/3/6 218/3/6
f 205/3/6 206/3/6 218/3/6
f 206/1/6 216/1/6 219/1/6
f 218/3/6 206/3/6 219/3/6
f 216/1/6 217/1/6 219/1/6
f 219/1/6 217/1/6 220/1/6
f 217/1/6 211/1/6 221/1/6
f 220/1/6 217/1/6 221/1/6
f 221/1/6 211/1/6 222/1/6
f 222/1/6 211/1/6 223/1/6
f 211/3/6 212/3/6 224/3/6
f 223/1/6 211/1/6 224/1/6
f 224/3/6 212/3/6 225/3/6
f 219/3/6 220/3/6 226/3/6
f 220/1/6 221/1/6 226/1/6
f 221/4/6 222/4/6 227/4/6
f 226/1/6 221/1/6 227/1/6
f 222/1/6 223/1/6 228/1/6
f 227/4/6 222/4/6 228/4/6
f 223/3/6 224/3/6 229/3/6
f 228/1/6 223/1/6 229/1/6
f 226/3/6 227/3/6 230/3/6
f 227/3/6 228/3/6 230/3/6
f 228/3/6 229/3/6 230/3/6
f 219/3/6 226/3/6 230/3/6
f 230/3/6 229/3/6 231/3/6
f 229/3/6 224/3/6 232/3/6
f 231/3/6 229/3/6 232/3/6
f 232/3/6 224/3/6 233/3/6
f 231/3/6 232/3/6 234/3/6
f 234/3/6 232/3/6 235/3/6
