# MagicaVoxel @ Ephtracy

# group
o 

# material
mtllib dog1.mtl
usemtl palette

# normals
vn -1 0 0
vn 1 0 0
vn 0 0 1
vn 0 0 -1
vn 0 -1 0
vn 0 1 0

# texcoords
vt 0.869141 0.5
vt 0.873047 0.5
vt 0.958984 0.5
vt 0.962891 0.5
vt 0.994141 0.5

# verts
v -0.7 0.8 0.1
v -0.7 0.8 -0.2
v -0.7 1 0
v -0.7 1 -0.1
v -0.7 1.1 0.1
v -0.7 1.1 0
v -0.7 1.1 -0.1
v -0.7 1.1 -0.2
v -0.5 0.8 0.2
v -0.5 0.8 0.1
v -0.5 0.8 -0.2
v -0.5 0.8 -0.3
v -0.5 1.1 0.2
v -0.5 1.1 0.1
v -0.5 1.1 0
v -0.5 1.1 -0.1
v -0.5 1.1 -0.2
v -0.5 1.1 -0.3
v -0.5 1.2 0.2
v -0.5 1.2 0.1
v -0.5 1.2 -0.2
v -0.5 1.2 -0.3
v -0.5 1.3 0.1
v -0.5 1.3 0
v -0.5 1.3 -0.1
v -0.5 1.3 -0.2
v -0.4 0 0.2
v -0.4 0 0
v -0.4 0 -0.1
v -0.4 0 -0.3
v -0.4 0.2 0.2
v -0.4 0.2 0
v -0.4 0.2 -0.1
v -0.4 0.2 -0.3
v -0.4 0.3 0
v -0.4 0.3 -0.1
v -0.4 0.4 0.1
v -0.4 0.4 0
v -0.4 0.4 -0.1
v -0.4 0.4 -0.2
v -0.4 0.8 0.2
v -0.4 0.8 0.1
v -0.4 0.8 -0.2
v -0.4 0.8 -0.3
v -0.4 1.2 0.2
v -0.4 1.2 0.1
v -0.4 1.2 -0.2
v -0.4 1.2 -0.3
v -0.4 1.3 0.2
v -0.4 1.3 0.1
v -0.4 1.3 -0.2
v -0.4 1.3 -0.3
v -0.2 0.5 0.1
v -0.2 0.5 -0.2
v -0.2 0.8 0.3
v -0.2 0.8 0.2
v -0.2 0.8 -0.3
v -0.2 0.8 -0.4
v -0.2 1.1 0.1
v -0.2 1.1 -0.2
v -0.2 1.2 0.3
v -0.2 1.2 0.2
v -0.2 1.2 -0.3
v -0.2 1.2 -0.4
v 0.3 0 0.2
v 0.3 0 0
v 0.3 0 -0.1
v 0.3 0 -0.3
v 0.3 0.2 0.2
v 0.3 0.2 0
v 0.3 0.2 -0.1
v 0.3 0.2 -0.3
v 0.3 0.4 0.2
v 0.3 0.4 0
v 0.3 0.4 -0.1
v 0.3 0.4 -0.3
v 0.5 0.8 0
v 0.5 0.8 -0.1
v 0.5 0.9 0
v 0.5 0.9 -0.1
v 0.5 1.2 0
v 0.5 1.2 -0.1
v 0.5 1.3 0
v 0.5 1.3 -0.1
v 0.6 0.9 0
v 0.6 0.9 -0.1
v 0.6 1.2 0
v 0.6 1.2 -0.1
v -0.4 0.8 0.1
v -0.4 0.8 -0.2
v -0.4 1.1 0.1
v -0.4 1.1 -0.2
v -0.3 0.3 0
v -0.3 0.3 -0.1
v -0.3 0.4 0
v -0.3 0.4 -0.1
v -0.3 0.5 0.1
v -0.3 0.5 -0.2
v -0.3 0.8 0.1
v -0.3 0.8 -0.2
v -0.2 0 0.2
v -0.2 0 0
v -0.2 0 -0.1
v -0.2 0 -0.3
v -0.2 0.2 0.2
v -0.2 0.2 0
v -0.2 0.2 -0.1
v -0.2 0.2 -0.3
v -0.2 0.4 0.2
v -0.2 0.4 0
v -0.2 0.4 -0.1
v -0.2 0.4 -0.3
v 0 0.8 0.3
v 0 0.8 0.2
v 0 0.8 -0.3
v 0 0.8 -0.4
v 0 1.2 0.3
v 0 1.2 0.2
v 0 1.2 -0.3
v 0 1.2 -0.4
v 0 1.3 0.2
v 0 1.3 -0.3
v 0.5 0 0.2
v 0.5 0 0
v 0.5 0 -0.1
v 0.5 0 -0.3
v 0.5 0.2 0.2
v 0.5 0.2 0
v 0.5 0.2 -0.1
v 0.5 0.2 -0.3
v 0.5 0.4 0
v 0.5 0.4 -0.1
v 0.5 0.7 0.1
v 0.5 0.7 0
v 0.5 0.7 -0.1
v 0.5 0.7 -0.2
v 0.5 0.8 0.2
v 0.5 0.8 0.1
v 0.5 0.8 0
v 0.5 0.8 -0.1
v 0.5 0.8 -0.2
v 0.5 0.8 -0.3
v 0.7 0.7 0
v 0.7 0.7 -0.1
v 0.7 0.8 0
v 0.7 0.8 -0.1
v 0.7 1.2 0
v 0.7 1.2 -0.1
v 0.7 1.3 0
v 0.7 1.3 -0.1
v 0.8 0.8 0
v 0.8 0.8 -0.1
v 0.8 1.2 0
v 0.8 1.2 -0.1
v -0.2 0.8 0.3
v -0.2 1.2 0.3
v 0 0.8 0.3
v 0 1.2 0.3
v -0.5 0.8 0.2
v -0.5 1.1 0.2
v -0.5 1.2 0.2
v -0.4 0 0.2
v -0.4 0.2 0.2
v -0.4 0.8 0.2
v -0.4 1.1 0.2
v -0.4 1.2 0.2
v -0.4 1.3 0.2
v -0.2 0 0.2
v -0.2 0.2 0.2
v -0.2 0.4 0.2
v -0.2 0.8 0.2
v -0.2 1.2 0.2
v 0 0.6 0.2
v 0 0.8 0.2
v 0 1.2 0.2
v 0 1.3 0.2
v 0.1 0.5 0.2
v 0.1 0.6 0.2
v 0.3 0 0.2
v 0.3 0.2 0.2
v 0.3 0.4 0.2
v 0.3 0.5 0.2
v 0.3 0.6 0.2
v 0.4 0.6 0.2
v 0.4 0.8 0.2
v 0.5 0 0.2
v 0.5 0.2 0.2
v 0.5 0.8 0.2
v -0.7 0.8 0.1
v -0.7 1.1 0.1
v -0.5 0.8 0.1
v -0.5 1.1 0.1
v -0.5 1.2 0.1
v -0.5 1.3 0.1
v -0.4 1.2 0.1
v -0.4 1.3 0.1
v 0.5 0.7 0
v 0.5 0.8 0
v 0.5 0.9 0
v 0.5 1.2 0
v 0.5 1.3 0
v 0.6 0.9 0
v 0.6 1.2 0
v 0.6 1.3 0
v 0.7 0.7 0
v 0.7 0.8 0
v 0.7 1.2 0
v 0.7 1.3 0
v 0.8 0.8 0
v 0.8 1.2 0
v -0.4 0 -0.1
v -0.4 0.2 -0.1
v -0.4 0.3 -0.1
v -0.3 0.3 -0.1
v -0.3 0.4 -0.1
v -0.2 0 -0.1
v -0.2 0.2 -0.1
v -0.2 0.4 -0.1
v 0.3 0 -0.1
v 0.3 0.2 -0.1
v 0.3 0.4 -0.1
v 0.5 0 -0.1
v 0.5 0.2 -0.1
v 0.5 0.4 -0.1
v -0.4 0.8 -0.2
v -0.4 1.1 -0.2
v -0.3 0.5 -0.2
v -0.3 0.8 -0.2
v -0.2 0.5 -0.2
v -0.2 1.1 -0.2
v -0.4 0.8 0.1
v -0.4 1.1 0.1
v -0.3 0.5 0.1
v -0.3 0.8 0.1
v -0.2 0.5 0.1
v -0.2 1.1 0.1
v -0.4 0 0
v -0.4 0.2 0
v -0.4 0.3 0
v -0.3 0.3 0
v -0.3 0.4 0
v -0.2 0 0
v -0.2 0.2 0
v -0.2 0.4 0
v 0.3 0 0
v 0.3 0.2 0
v 0.3 0.4 0
v 0.5 0 0
v 0.5 0.2 0
v 0.5 0.4 0
v 0.5 0.7 -0.1
v 0.5 0.8 -0.1
v 0.5 0.9 -0.1
v 0.5 1.2 -0.1
v 0.5 1.3 -0.1
v 0.6 0.9 -0.1
v 0.6 1.2 -0.1
v 0.6 1.3 -0.1
v 0.7 0.7 -0.1
v 0.7 0.8 -0.1
v 0.7 1.2 -0.1
v 0.7 1.3 -0.1
v 0.8 0.8 -0.1
v 0.8 1.2 -0.1
v -0.7 0.8 -0.2
v -0.7 1.1 -0.2
v -0.5 0.8 -0.2
v -0.5 1.1 -0.2
v -0.5 1.2 -0.2
v -0.5 1.3 -0.2
v -0.4 1.2 -0.2
v -0.4 1.3 -0.2
v -0.5 0.8 -0.3
v -0.5 1.1 -0.3
v -0.5 1.2 -0.3
v -0.4 0 -0.3
v -0.4 0.2 -0.3
v -0.4 0.8 -0.3
v -0.4 1.1 -0.3
v -0.4 1.2 -0.3
v -0.4 1.3 -0.3
v -0.2 0 -0.3
v -0.2 0.2 -0.3
v -0.2 0.4 -0.3
v -0.2 0.8 -0.3
v -0.2 1.2 -0.3
v 0 0.6 -0.3
v 0 0.8 -0.3
v 0 1.2 -0.3
v 0 1.3 -0.3
v 0.1 0.5 -0.3
v 0.1 0.6 -0.3
v 0.3 0 -0.3
v 0.3 0.2 -0.3
v 0.3 0.4 -0.3
v 0.3 0.5 -0.3
v 0.3 0.6 -0.3
v 0.4 0.6 -0.3
v 0.4 0.8 -0.3
v 0.5 0 -0.3
v 0.5 0.2 -0.3
v 0.5 0.8 -0.3
v -0.2 0.8 -0.4
v -0.2 1.2 -0.4
v 0 0.8 -0.4
v 0 1.2 -0.4
v -0.4 0 0.2
v -0.2 0 0.2
v 0.3 0 0.2
v 0.5 0 0.2
v -0.4 0 0
v -0.2 0 0
v 0.3 0 0
v 0.5 0 0
v -0.4 0 -0.1
v -0.2 0 -0.1
v 0.3 0 -0.1
v 0.5 0 -0.1
v -0.4 0 -0.3
v -0.2 0 -0.3
v 0.3 0 -0.3
v 0.5 0 -0.3
v -0.4 0.3 0
v -0.3 0.3 0
v -0.4 0.3 -0.1
v -0.3 0.3 -0.1
v -0.2 0.4 0.2
v 0.3 0.4 0.2
v -0.3 0.4 0
v -0.2 0.4 0
v 0.3 0.4 0
v 0.5 0.4 0
v -0.3 0.4 -0.1
v -0.2 0.4 -0.1
v 0.3 0.4 -0.1
v 0.5 0.4 -0.1
v -0.2 0.4 -0.3
v 0.3 0.4 -0.3
v 0.5 0.7 0
v 0.7 0.7 0
v 0.5 0.7 -0.1
v 0.7 0.7 -0.1
v -0.2 0.8 0.3
v 0 0.8 0.3
v -0.5 0.8 0.2
v -0.4 0.8 0.2
v -0.2 0.8 0.2
v 0 0.8 0.2
v -0.7 0.8 0.1
v -0.5 0.8 0.1
v -0.4 0.8 0.1
v 0.7 0.8 0
v 0.8 0.8 0
v 0.7 0.8 -0.1
v 0.8 0.8 -0.1
v -0.7 0.8 -0.2
v -0.5 0.8 -0.2
v -0.4 0.8 -0.2
v -0.5 0.8 -0.3
v -0.4 0.8 -0.3
v -0.2 0.8 -0.3
v 0 0.8 -0.3
v -0.2 0.8 -0.4
v 0 0.8 -0.4
v -0.4 1.1 0.1
v -0.2 1.1 0.1
v -0.4 1.1 -0.2
v -0.2 1.1 -0.2
v 0.5 1.2 0
v 0.6 1.2 0
v 0.5 1.2 -0.1
v 0.6 1.2 -0.1
v -0.3 0.5 0.1
v -0.2 0.5 0.1
v -0.3 0.5 -0.2
v -0.2 0.5 -0.2
v 0 0.8 0.2
v 0.4 0.8 0.2
v 0.5 0.8 0.2
v -0.4 0.8 0.1
v -0.3 0.8 0.1
v 0.4 0.8 0.1
v 0.5 0.8 0.1
v 0.5 0.8 0
v 0.5 0.8 -0.1
v -0.4 0.8 -0.2
v -0.3 0.8 -0.2
v 0.4 0.8 -0.2
v 0.5 0.8 -0.2
v 0 0.8 -0.3
v 0.4 0.8 -0.3
v 0.5 0.8 -0.3
v 0.5 0.9 0
v 0.6 0.9 0
v 0.5 0.9 -0.1
v 0.6 0.9 -0.1
v -0.7 1.1 0.1
v -0.5 1.1 0.1
v -0.7 1.1 0
v -0.6 1.1 0
v -0.5 1.1 0
v -0.7 1.1 -0.1
v -0.6 1.1 -0.1
v -0.5 1.1 -0.1
v -0.7 1.1 -0.2
v -0.5 1.1 -0.2
v -0.2 1.2 0.3
v 0 1.2 0.3
v -0.5 1.2 0.2
v -0.4 1.2 0.2
v -0.2 1.2 0.2
v 0 1.2 0.2
v -0.5 1.2 0.1
v -0.4 1.2 0.1
v 0.7 1.2 0
v 0.8 1.2 0
v 0.7 1.2 -0.1
v 0.8 1.2 -0.1
v -0.5 1.2 -0.2
v -0.4 1.2 -0.2
v -0.5 1.2 -0.3
v -0.4 1.2 -0.3
v -0.2 1.2 -0.3
v 0 1.2 -0.3
v -0.2 1.2 -0.4
v 0 1.2 -0.4
v -0.4 1.3 0.2
v 0 1.3 0.2
v -0.5 1.3 0.1
v -0.4 1.3 0.1
v -0.5 1.3 0
v -0.4 1.3 0
v 0.5 1.3 0
v 0.6 1.3 0
v 0.7 1.3 0
v -0.5 1.3 -0.1
v -0.4 1.3 -0.1
v 0.5 1.3 -0.1
v 0.6 1.3 -0.1
v 0.7 1.3 -0.1
v -0.5 1.3 -0.2
v -0.4 1.3 -0.2
v -0.4 1.3 -0.3
v 0 1.3 -0.3

# faces
f 3/3/1 2/3/1 1/3/1
f 4/3/1 2/3/1 3/3/1
f 5/3/1 3/3/1 1/3/1
f 6/5/1 4/5/1 3/5/1
f 6/3/1 3/3/1 5/3/1
f 7/3/1 2/3/1 4/3/1
f 7/5/1 4/5/1 6/5/1
f 8/3/1 2/3/1 7/3/1
f 13/1/1 10/1/1 9/1/1
f 14/1/1 10/1/1 13/1/1
f 17/1/1 12/1/1 11/1/1
f 18/1/1 12/1/1 17/1/1
f 19/5/1 14/5/1 13/5/1
f 20/1/1 15/1/1 14/1/1
f 20/5/1 14/5/1 19/5/1
f 21/1/1 17/1/1 16/1/1
f 21/5/1 18/5/1 17/5/1
f 22/5/1 18/5/1 21/5/1
f 23/1/1 15/1/1 20/1/1
f 24/3/1 16/3/1 15/3/1
f 24/1/1 15/1/1 23/1/1
f 25/1/1 21/1/1 16/1/1
f 25/3/1 16/3/1 24/3/1
f 26/1/1 21/1/1 25/1/1
f 31/3/1 28/3/1 27/3/1
f 32/3/1 28/3/1 31/3/1
f 33/3/1 30/3/1 29/3/1
f 34/3/1 30/3/1 33/3/1
f 35/1/1 32/1/1 31/1/1
f 36/1/1 34/1/1 33/1/1
f 37/1/1 35/1/1 31/1/1
f 38/3/1 36/3/1 35/3/1
f 38/1/1 35/1/1 37/1/1
f 39/1/1 34/1/1 36/1/1
f 39/3/1 36/3/1 38/3/1
f 40/1/1 34/1/1 39/1/1
f 41/1/1 37/1/1 31/1/1
f 42/3/1 38/3/1 37/3/1
f 42/1/1 37/1/1 41/1/1
f 42/3/1 39/3/1 38/3/1
f 42/3/1 40/3/1 39/3/1
f 43/1/1 34/1/1 40/1/1
f 43/3/1 40/3/1 42/3/1
f 44/1/1 34/1/1 43/1/1
f 49/1/1 46/1/1 45/1/1
f 50/1/1 46/1/1 49/1/1
f 51/1/1 48/1/1 47/1/1
f 52/1/1 48/1/1 51/1/1
f 59/1/1 54/1/1 53/1/1
f 60/1/1 54/1/1 59/1/1
f 61/2/1 56/2/1 55/2/1
f 62/2/1 56/2/1 61/2/1
f 63/2/1 58/2/1 57/2/1
f 64/2/1 58/2/1 63/2/1
f 69/4/1 66/4/1 65/4/1
f 70/4/1 66/4/1 69/4/1
f 71/4/1 68/4/1 67/4/1
f 72/4/1 68/4/1 71/4/1
f 73/1/1 70/1/1 69/1/1
f 74/1/1 70/1/1 73/1/1
f 75/1/1 72/1/1 71/1/1
f 76/1/1 72/1/1 75/1/1
f 79/2/1 78/2/1 77/2/1
f 80/2/1 78/2/1 79/2/1
f 83/2/1 82/2/1 81/2/1
f 84/2/1 82/2/1 83/2/1
f 87/2/1 86/2/1 85/2/1
f 88/2/1 86/2/1 87/2/1
f 89/1/2 90/1/2 91/1/2
f 91/1/2 90/1/2 92/1/2
f 93/3/2 94/3/2 95/3/2
f 95/3/2 94/3/2 96/3/2
f 97/3/2 98/3/2 99/3/2
f 99/3/2 98/3/2 100/3/2
f 101/3/2 102/3/2 105/3/2
f 105/3/2 102/3/2 106/3/2
f 103/3/2 104/3/2 107/3/2
f 107/3/2 104/3/2 108/3/2
f 105/1/2 106/1/2 109/1/2
f 109/1/2 106/1/2 110/1/2
f 107/1/2 108/1/2 111/1/2
f 111/1/2 108/1/2 112/1/2
f 113/2/2 114/2/2 117/2/2
f 114/1/2 115/1/2 118/1/2
f 117/2/2 114/2/2 118/2/2
f 115/2/2 116/2/2 119/2/2
f 118/1/2 115/1/2 119/1/2
f 119/2/2 116/2/2 120/2/2
f 118/1/2 119/1/2 121/1/2
f 121/1/2 119/1/2 122/1/2
f 123/4/2 124/4/2 127/4/2
f 127/4/2 124/4/2 128/4/2
f 125/4/2 126/4/2 129/4/2
f 129/4/2 126/4/2 130/4/2
f 127/1/2 128/1/2 131/1/2
f 129/1/2 130/1/2 132/1/2
f 127/1/2 131/1/2 133/1/2
f 131/1/2 132/1/2 133/1/2
f 133/1/2 132/1/2 134/1/2
f 132/1/2 130/1/2 135/1/2
f 134/1/2 132/1/2 135/1/2
f 135/1/2 130/1/2 136/1/2
f 127/1/2 133/1/2 137/1/2
f 133/2/2 134/2/2 138/2/2
f 137/1/2 133/1/2 138/1/2
f 138/2/2 134/2/2 139/2/2
f 135/2/2 136/2/2 140/2/2
f 136/1/2 130/1/2 141/1/2
f 140/2/2 136/2/2 141/2/2
f 141/1/2 130/1/2 142/1/2
f 143/3/2 144/3/2 145/3/2
f 145/3/2 144/3/2 146/3/2
f 147/3/2 148/3/2 149/3/2
f 149/3/2 148/3/2 150/3/2
f 151/3/2 152/3/2 153/3/2
f 153/3/2 152/3/2 154/3/2
f 157/2/3 156/2/3 155/2/3
f 158/2/3 156/2/3 157/2/3
f 164/1/3 160/1/3 159/1/3
f 165/5/3 161/5/3 160/5/3
f 165/1/3 160/1/3 164/1/3
f 166/5/3 161/5/3 165/5/3
f 168/3/3 163/3/3 162/3/3
f 169/1/3 167/1/3 166/1/3
f 169/3/3 163/3/3 168/3/3
f 169/1/3 164/1/3 163/1/3
f 169/1/3 166/1/3 165/1/3
f 169/1/3 165/1/3 164/1/3
f 170/1/3 167/1/3 169/1/3
f 171/1/3 167/1/3 170/1/3
f 172/1/3 167/1/3 171/1/3
f 173/1/3 171/1/3 170/1/3
f 174/1/3 171/1/3 173/1/3
f 175/1/3 167/1/3 172/1/3
f 176/1/3 167/1/3 175/1/3
f 177/1/3 173/1/3 170/1/3
f 178/2/3 174/2/3 173/2/3
f 178/1/3 173/1/3 177/1/3
f 181/1/3 177/1/3 170/1/3
f 182/2/3 178/2/3 177/2/3
f 182/1/3 177/1/3 181/1/3
f 183/2/3 174/2/3 178/2/3
f 183/2/3 178/2/3 182/2/3
f 184/1/3 181/1/3 180/1/3
f 184/2/3 174/2/3 183/2/3
f 184/1/3 183/1/3 182/1/3
f 184/1/3 182/1/3 181/1/3
f 185/2/3 174/2/3 184/2/3
f 186/4/3 180/4/3 179/4/3
f 187/1/3 184/1/3 180/1/3
f 187/4/3 180/4/3 186/4/3
f 187/1/3 185/1/3 184/1/3
f 188/1/3 185/1/3 187/1/3
f 191/3/3 190/3/3 189/3/3
f 192/3/3 190/3/3 191/3/3
f 195/1/3 194/1/3 193/1/3
f 196/1/3 194/1/3 195/1/3
f 202/2/3 199/2/3 198/2/3
f 203/2/3 201/2/3 200/2/3
f 204/2/3 201/2/3 203/2/3
f 205/3/3 198/3/3 197/3/3
f 206/2/3 202/2/3 198/2/3
f 206/3/3 198/3/3 205/3/3
f 206/2/3 203/2/3 202/2/3
f 207/3/3 204/3/3 203/3/3
f 207/2/3 203/2/3 206/2/3
f 208/3/3 204/3/3 207/3/3
f 209/3/3 207/3/3 206/3/3
f 210/3/3 207/3/3 209/3/3
f 214/1/3 213/1/3 212/1/3
f 216/3/3 212/3/3 211/3/3
f 217/1/3 215/1/3 214/1/3
f 217/3/3 212/3/3 216/3/3
f 217/1/3 214/1/3 212/1/3
f 218/1/3 215/1/3 217/1/3
f 222/4/3 220/4/3 219/4/3
f 223/1/3 221/1/3 220/1/3
f 223/4/3 220/4/3 222/4/3
f 224/1/3 221/1/3 223/1/3
f 228/1/3 226/1/3 225/1/3
f 229/1/3 228/1/3 227/1/3
f 230/1/3 226/1/3 228/1/3
f 230/1/3 228/1/3 229/1/3
f 231/1/4 232/1/4 234/1/4
f 233/1/4 234/1/4 235/1/4
f 234/1/4 232/1/4 236/1/4
f 235/1/4 234/1/4 236/1/4
f 238/1/4 239/1/4 240/1/4
f 237/3/4 238/3/4 242/3/4
f 240/1/4 241/1/4 243/1/4
f 242/3/4 238/3/4 243/3/4
f 238/1/4 240/1/4 243/1/4
f 243/1/4 241/1/4 244/1/4
f 245/4/4 246/4/4 248/4/4
f 246/1/4 247/1/4 249/1/4
f 248/4/4 246/4/4 249/4/4
f 249/1/4 247/1/4 250/1/4
f 252/2/4 253/2/4 256/2/4
f 254/2/4 255/2/4 257/2/4
f 257/2/4 255/2/4 258/2/4
f 251/3/4 252/3/4 259/3/4
f 252/2/4 256/2/4 260/2/4
f 259/3/4 252/3/4 260/3/4
f 256/2/4 257/2/4 260/2/4
f 257/3/4 258/3/4 261/3/4
f 260/2/4 257/2/4 261/2/4
f 261/3/4 258/3/4 262/3/4
f 260/3/4 261/3/4 263/3/4
f 263/3/4 261/3/4 264/3/4
f 265/3/4 266/3/4 267/3/4
f 267/3/4 266/3/4 268/3/4
f 269/1/4 270/1/4 271/1/4
f 271/1/4 270/1/4 272/1/4
f 273/1/4 274/1/4 278/1/4
f 274/5/4 275/5/4 279/5/4
f 278/1/4 274/1/4 279/1/4
f 279/5/4 275/5/4 280/5/4
f 276/3/4 277/3/4 282/3/4
f 280/1/4 281/1/4 283/1/4
f 282/3/4 277/3/4 283/3/4
f 277/1/4 278/1/4 283/1/4
f 279/1/4 280/1/4 283/1/4
f 278/1/4 279/1/4 283/1/4
f 283/1/4 281/1/4 284/1/4
f 284/1/4 281/1/4 285/1/4
f 285/1/4 281/1/4 286/1/4
f 284/1/4 285/1/4 287/1/4
f 287/1/4 285/1/4 288/1/4
f 286/1/4 281/1/4 289/1/4
f 289/1/4 281/1/4 290/1/4
f 284/1/4 287/1/4 291/1/4
f 287/2/4 288/2/4 292/2/4
f 291/1/4 287/1/4 292/1/4
f 284/1/4 291/1/4 295/1/4
f 291/2/4 292/2/4 296/2/4
f 295/1/4 291/1/4 296/1/4
f 292/2/4 288/2/4 297/2/4
f 296/2/4 292/2/4 297/2/4
f 294/1/4 295/1/4 298/1/4
f 297/2/4 288/2/4 298/2/4
f 296/1/4 297/1/4 298/1/4
f 295/1/4 296/1/4 298/1/4
f 298/2/4 288/2/4 299/2/4
f 293/4/4 294/4/4 300/4/4
f 294/1/4 298/1/4 301/1/4
f 300/4/4 294/4/4 301/4/4
f 298/1/4 299/1/4 301/1/4
f 301/1/4 299/1/4 302/1/4
f 303/2/4 304/2/4 305/2/4
f 305/2/4 304/2/4 306/2/4
f 311/3/5 308/3/5 307/3/5
f 312/3/5 308/3/5 311/3/5
f 313/4/5 310/4/5 309/4/5
f 314/4/5 310/4/5 313/4/5
f 319/3/5 316/3/5 315/3/5
f 320/3/5 316/3/5 319/3/5
f 321/4/5 318/4/5 317/4/5
f 322/4/5 318/4/5 321/4/5
f 325/3/5 324/3/5 323/3/5
f 326/3/5 324/3/5 325/3/5
f 330/1/5 328/1/5 327/1/5
f 331/1/5 328/1/5 330/1/5
f 333/1/5 330/1/5 329/1/5
f 333/1/5 332/1/5 331/1/5
f 333/1/5 331/1/5 330/1/5
f 334/1/5 332/1/5 333/1/5
f 335/1/5 332/1/5 334/1/5
f 336/1/5 332/1/5 335/1/5
f 337/1/5 335/1/5 334/1/5
f 338/1/5 335/1/5 337/1/5
f 341/3/5 340/3/5 339/3/5
f 342/3/5 340/3/5 341/3/5
f 347/2/5 344/2/5 343/2/5
f 348/2/5 344/2/5 347/2/5
f 350/1/5 346/1/5 345/1/5
f 351/1/5 346/1/5 350/1/5
f 354/3/5 353/3/5 352/3/5
f 355/3/5 353/3/5 354/3/5
f 356/3/5 350/3/5 349/3/5
f 357/1/5 351/1/5 350/1/5
f 357/3/5 350/3/5 356/3/5
f 358/1/5 351/1/5 357/1/5
f 359/1/5 358/1/5 357/1/5
f 360/1/5 358/1/5 359/1/5
f 363/2/5 362/2/5 361/2/5
f 364/2/5 362/2/5 363/2/5
f 367/1/5 366/1/5 365/1/5
f 368/1/5 366/1/5 367/1/5
f 371/2/5 370/2/5 369/2/5
f 372/2/5 370/2/5 371/2/5
f 373/1/6 374/1/6 375/1/6
f 375/1/6 374/1/6 376/1/6
f 377/2/6 378/2/6 382/2/6
f 378/1/6 379/1/6 382/1/6
f 382/1/6 379/1/6 383/1/6
f 382/2/6 383/2/6 384/2/6
f 382/2/6 384/2/6 385/2/6
f 380/3/6 381/3/6 386/3/6
f 386/3/6 381/3/6 387/3/6
f 377/2/6 382/2/6 388/2/6
f 382/2/6 385/2/6 388/2/6
f 388/2/6 385/2/6 389/2/6
f 377/2/6 388/2/6 390/2/6
f 388/1/6 389/1/6 391/1/6
f 390/2/6 388/2/6 391/2/6
f 391/1/6 389/1/6 392/1/6
f 393/2/6 394/2/6 395/2/6
f 395/2/6 394/2/6 396/2/6
f 397/3/6 398/3/6 399/3/6
f 399/3/6 398/3/6 400/3/6
f 400/3/6 398/3/6 401/3/6
f 399/5/6 400/5/6 402/5/6
f 400/3/6 401/3/6 403/3/6
f 402/5/6 400/5/6 403/5/6
f 403/3/6 401/3/6 404/3/6
f 402/3/6 403/3/6 405/3/6
f 403/3/6 404/3/6 405/3/6
f 405/3/6 404/3/6 406/3/6
f 407/2/6 408/2/6 411/2/6
f 411/2/6 408/2/6 412/2/6
f 409/5/6 410/5/6 413/5/6
f 413/5/6 410/5/6 414/5/6
f 415/3/6 416/3/6 417/3/6
f 417/3/6 416/3/6 418/3/6
f 419/5/6 420/5/6 421/5/6
f 421/5/6 420/5/6 422/5/6
f 423/2/6 424/2/6 425/2/6
f 425/2/6 424/2/6 426/2/6
f 427/1/6 428/1/6 430/1/6
f 429/1/6 430/1/6 431/1/6
f 430/1/6 428/1/6 432/1/6
f 431/1/6 430/1/6 432/1/6
f 431/3/6 432/3/6 436/3/6
f 432/1/6 428/1/6 437/1/6
f 436/3/6 432/3/6 437/3/6
f 433/2/6 434/2/6 438/2/6
f 434/3/6 435/3/6 439/3/6
f 438/2/6 434/2/6 439/2/6
f 439/3/6 435/3/6 440/3/6
f 436/1/6 437/1/6 441/1/6
f 437/1/6 428/1/6 442/1/6
f 441/1/6 437/1/6 442/1/6
f 442/1/6 428/1/6 443/1/6
f 443/1/6 428/1/6 444/1/6
